<?xml version="1.0" encoding="UTF-8" standalone="no"?>
<!DOCTYPE svg PUBLIC "-//W3C//DTD SVG 1.1//EN" "http://www.w3.org/Graphics/SVG/1.1/DTD/svg11.dtd">
<svg width="100%" height="100%" viewBox="0 0 876 368" version="1.1" xmlns="http://www.w3.org/2000/svg" xmlns:xlink="http://www.w3.org/1999/xlink" xml:space="preserve" xmlns:serif="http://www.serif.com/" style="fill-rule:evenodd;clip-rule:evenodd;stroke-linecap:round;stroke-linejoin:round;stroke-miterlimit:1.5;">
    <g transform="matrix(1,0,0,1,-944.382,-708.161)">
        <g transform="matrix(0.74,0,0,0.775,140.787,12.9921)">
            <rect x="1086.61" y="897.638" width="1181.1" height="472.441" style="fill:rgb(235,235,235);stroke:black;stroke-width:1.32px;"/>
        </g>
        <g transform="matrix(1,0,0,1,-24.1738,3.99688)">
            <text x="1658.39px" y="1005.74px" style="font-family:'ArialMT', 'Arial', sans-serif;font-size:50px;">6.5 mm</text>
        </g>
        <g transform="matrix(1,0,0,1,348.83,413.386)">
            <g transform="matrix(5.10269e-17,0.833333,-0.833333,5.10269e-17,1358.27,460.63)">
                <circle cx="0" cy="0" r="70.866" style="fill:rgb(235,235,235);stroke:black;stroke-width:1.2px;"/>
            </g>
            <g transform="matrix(-0.8125,9.95026e-17,-9.95026e-17,-0.8125,1358.27,460.63)">
                <circle cx="0" cy="0" r="47.244" style="fill:rgb(235,235,235);stroke:black;stroke-width:1.23px;"/>
            </g>
        </g>
        <g transform="matrix(1,0,0,1,803.099,-225.862)">
            <g transform="matrix(1,0,0,1,-803.15,208.146)">
                <circle cx="1500" cy="891.732" r="118.059" style="fill:rgb(235,235,235);stroke:black;stroke-width:1px;"/>
            </g>
            <g transform="matrix(5.51091e-17,0.9,-0.9,5.51091e-17,696.85,1099.88)">
                <path d="M0,-118.11L102.286,-59.055L102.286,59.055L0,118.11L-102.286,59.055L-102.286,-59.055L0,-118.11Z" style="fill:rgb(235,235,235);stroke:black;stroke-width:1.11px;"/>
            </g>
            <g transform="matrix(-1.5,1.83697e-16,-1.83697e-16,-1.5,696.85,1099.88)">
                <circle cx="0" cy="0" r="47.244" style="fill:rgb(235,235,235);stroke:black;stroke-width:0.67px;"/>
            </g>
        </g>
        <g transform="matrix(1,0,0,1,-47.2836,206.549)">
            <text x="1469.72px" y="827.454px" style="font-family:'ArialMT', 'Arial', sans-serif;font-size:50px;">12 mm</text>
        </g>
        <g transform="matrix(1,0,0,1,732.283,153.543)">
            <g transform="matrix(5.10269e-17,0.833333,-0.833333,5.10269e-17,437.008,720.472)">
                <path d="M0,-212.598L184.116,-106.299L184.116,106.299L0,212.598L-184.116,106.299L-184.116,-106.299L0,-212.598Z" style="fill:rgb(235,235,235);stroke:black;stroke-width:1.2px;"/>
            </g>
            <g transform="matrix(3.782e-17,0.617647,-0.617647,3.782e-17,437.008,720.472)">
                <circle cx="0" cy="0" r="200.787" style="fill:rgb(235,235,235);stroke:black;stroke-width:1.62px;"/>
            </g>
        </g>
        <g transform="matrix(1,0,0,1,-11.7602,0)">
            <path d="M1393.65,708.661L1393.65,1074.8" style="fill:none;stroke:black;stroke-width:0.83px;stroke-dasharray:8.33,8.33,0,0;"/>
        </g>
        <g transform="matrix(1,0,0,1,-224.359,0)">
            <path d="M1393.65,708.661L1393.65,1074.8" style="fill:none;stroke:black;stroke-width:0.83px;stroke-dasharray:8.33,8.33,0,0;"/>
        </g>
        <g transform="matrix(1,0,0,1,106.299,0)">
            <path d="M1393.65,708.661L1393.65,1074.8" style="fill:none;stroke:black;stroke-width:0.83px;stroke-dasharray:8.33,8.33,0,0;"/>
        </g>
        <g transform="matrix(1,0,0,1,313.448,0)">
            <path d="M1393.65,708.661L1393.65,1074.8" style="fill:none;stroke:black;stroke-width:0.83px;stroke-dasharray:8.33,8.33,0,0;"/>
        </g>
        <g transform="matrix(1.46168e-16,-1,2.3871,6.12323e-17,-746.761,2267.67)">
            <path d="M1393.65,708.661L1393.65,1074.8" style="fill:none;stroke:black;stroke-width:0.46px;stroke-dasharray:4.55,4.55,0,0;"/>
        </g>
        <g transform="matrix(1,0,0,1,-9.44401,263.168)">
            <text x="1102.86px" y="806.772px" style="font-family:'ArialMT', 'Arial', sans-serif;font-size:50px;">22 mm</text>
        </g>
    </g>
</svg>
