<?xml version="1.0" encoding="UTF-8" standalone="no"?>
<!DOCTYPE svg PUBLIC "-//W3C//DTD SVG 1.1//EN" "http://www.w3.org/Graphics/SVG/1.1/DTD/svg11.dtd">
<svg width="100%" height="100%" viewBox="0 0 966 622" version="1.1" xmlns="http://www.w3.org/2000/svg" xmlns:xlink="http://www.w3.org/1999/xlink" xml:space="preserve" xmlns:serif="http://www.serif.com/" style="fill-rule:evenodd;clip-rule:evenodd;stroke-linecap:round;stroke-linejoin:round;stroke-miterlimit:1.5;">
    <g transform="matrix(0.942821,0,0,0.809767,0,0)">
        <rect id="Artboard1" x="0" y="0" width="1024" height="768" style="fill:none;"/>
        <g id="Artboard11" serif:id="Artboard1">
            <g transform="matrix(1.06065,0,0,1.23492,229.305,-38.4874)">
                <g transform="matrix(1,0,0,1,0,0.0371436)">
                    <g transform="matrix(3.34422,0,0,1,-554.605,-34.4708)">
                        <rect x="137.494" y="229.195" width="70.551" height="11.111" style="fill:rgb(255,0,0);"/>
                    </g>
                    <g transform="matrix(1,0,0,1,-156.665,-54.0621)">
                        <path d="M338.238,315.703C333.639,315.703 329.904,311.969 329.904,307.37C329.904,302.771 333.639,299.037 338.238,299.037L605.772,299.037C610.371,299.037 614.105,302.771 614.105,307.37C614.105,311.969 610.371,315.703 605.772,315.703L338.238,315.703Z" style="fill:rgb(255,0,0);"/>
                    </g>
                    <g transform="matrix(1,0,0,1,-156.665,-54.0621)">
                        <rect x="735.964" y="370.111" width="89.344" height="27.778" style="fill:rgb(255,0,0);"/>
                    </g>
                    <rect x="131.057" y="171.58" width="130.193" height="130.193" style="fill:white;stroke:black;stroke-width:4.17px;"/>
                    <path d="M131.057,301.772L261.249,171.58" style="fill:none;stroke:black;stroke-width:4.17px;"/>
                </g>
                <g transform="matrix(1,0,0,1,-2.25305,-4.06649)">
                    <g transform="matrix(1,0,0,1,0,-3)">
                        <path d="M146.105,191.441L187.593,191.441" style="fill:none;stroke:black;stroke-width:2.78px;"/>
                    </g>
                    <g transform="matrix(1,0,0,1,0,-7.22122)">
                        <path d="M146.105,205.961L162.315,205.961" style="fill:none;stroke:black;stroke-width:2.78px;"/>
                    </g>
                    <g transform="matrix(1,0,0,1,25.2776,-7.22122)">
                        <path d="M146.105,205.961L162.315,205.961" style="fill:none;stroke:black;stroke-width:2.78px;"/>
                    </g>
                </g>
                <g transform="matrix(1,0,0,1,60.861,90.2736)">
                    <g transform="matrix(1,0,0,1,0,-3)">
                        <path d="M146.105,191.441L187.593,191.441" style="fill:none;stroke:black;stroke-width:2.78px;"/>
                    </g>
                    <g transform="matrix(1,0,0,1,0,-7.22122)">
                        <path d="M146.105,205.961L162.315,205.961" style="fill:none;stroke:black;stroke-width:2.78px;"/>
                    </g>
                    <g transform="matrix(1,0,0,1,25.2776,-7.22122)">
                        <path d="M146.105,205.961L162.315,205.961" style="fill:none;stroke:black;stroke-width:2.78px;"/>
                    </g>
                </g>
            </g>
            <g transform="matrix(1.06065,0,0,1.11146,-52.8027,-25.2742)">
                <path d="M119.654,122.825L119.654,647.399" style="fill:none;stroke:black;stroke-width:2.92px;"/>
            </g>
            <g transform="matrix(1.06065,0,0,1.23492,566.644,32.3972)">
                <g transform="matrix(1,0,0,1,0,0.0371436)">
                    <rect x="131.057" y="171.58" width="130.193" height="130.193" style="fill:white;stroke:black;stroke-width:4.17px;"/>
                    <path d="M131.057,301.772L261.249,171.58" style="fill:none;stroke:black;stroke-width:4.17px;"/>
                </g>
                <g transform="matrix(1,0,0,1,-2.25305,-4.06649)">
                    <g transform="matrix(1,0,0,1,0,-3)">
                        <path d="M146.105,191.441L187.593,191.441" style="fill:none;stroke:black;stroke-width:2.78px;"/>
                    </g>
                    <g transform="matrix(1,0,0,1,0,-7.22122)">
                        <path d="M146.105,205.961L162.315,205.961" style="fill:none;stroke:black;stroke-width:2.78px;"/>
                    </g>
                    <g transform="matrix(1,0,0,1,25.2776,-7.22122)">
                        <path d="M146.105,205.961L162.315,205.961" style="fill:none;stroke:black;stroke-width:2.78px;"/>
                    </g>
                </g>
                <g transform="matrix(1,0,0,1,60.861,90.2736)">
                    <g transform="matrix(1,0,0,1,0,-3)">
                        <path d="M146.105,191.441L187.593,191.441" style="fill:none;stroke:black;stroke-width:2.78px;"/>
                    </g>
                    <g transform="matrix(1,0,0,1,0,-7.22122)">
                        <path d="M146.105,205.961L162.315,205.961" style="fill:none;stroke:black;stroke-width:2.78px;"/>
                    </g>
                    <g transform="matrix(1,0,0,1,25.2776,-7.22122)">
                        <path d="M146.105,205.961L162.315,205.961" style="fill:none;stroke:black;stroke-width:2.78px;"/>
                    </g>
                </g>
            </g>
            <g transform="matrix(1.06065,0,0,1.23492,109.45,-105.204)">
                <g transform="matrix(2.21193,0,0,2.21193,-618.207,-435.924)">
                    <g transform="matrix(0.558688,0,0,0.558688,237.581,102.648)">
                        <path d="M498.094,442.261L424.015,442.261L424.015,503.593L498.094,503.593M498.094,503.593C505.897,503.593 512.222,489.864 512.222,472.927C512.222,455.991 505.897,442.261 498.094,442.261" style="fill:rgb(0,22,116);stroke:rgb(98,98,98);stroke-width:4.5px;"/>
                        <g transform="matrix(1,0,0,1,49.8934,0)">
                            <ellipse cx="374.121" cy="472.927" rx="14.128" ry="30.666" style="fill:rgb(168,168,168);stroke:rgb(98,98,98);stroke-width:4.5px;"/>
                        </g>
                    </g>
                    <g transform="matrix(0.558688,0,0,0.558688,237.581,141.943)">
                        <path d="M498.094,442.261L424.015,442.261L424.015,503.593L498.094,503.593M498.094,503.593C505.897,503.593 512.222,489.864 512.222,472.927C512.222,455.991 505.897,442.261 498.094,442.261" style="fill:rgb(0,22,116);stroke:rgb(98,98,98);stroke-width:4.5px;"/>
                        <g transform="matrix(1,0,0,1,49.8934,0)">
                            <ellipse cx="374.121" cy="472.927" rx="14.128" ry="30.666" style="fill:rgb(168,168,168);stroke:rgb(98,98,98);stroke-width:4.5px;"/>
                        </g>
                    </g>
                    <g transform="matrix(0.558688,0,0,0.558688,237.581,181.164)">
                        <path d="M498.094,442.261L424.015,442.261L424.015,503.593L498.094,503.593M498.094,503.593C505.897,503.593 512.222,489.864 512.222,472.927C512.222,455.991 505.897,442.261 498.094,442.261" style="fill:rgb(0,22,116);stroke:rgb(98,98,98);stroke-width:4.5px;"/>
                        <g transform="matrix(1,0,0,1,49.8934,0)">
                            <ellipse cx="374.121" cy="472.927" rx="14.128" ry="30.666" style="fill:rgb(168,168,168);stroke:rgb(98,98,98);stroke-width:4.5px;"/>
                        </g>
                    </g>
                </g>
                <g transform="matrix(2.21193,0,0,1.93418,-589.115,-287.14)">
                    <path d="M461.321,338.408L448.534,338.408L448.534,307.37" style="fill:none;stroke:rgb(255,0,0);stroke-width:2.67px;stroke-linecap:butt;"/>
                </g>
                <g transform="matrix(2.21193,0,0,2.36708,-589.115,-440.324)">
                    <path d="M461.321,348.244L448.534,348.244L448.534,377.909L461.321,377.909" style="fill:none;stroke:black;stroke-width:2.43px;stroke-linecap:butt;"/>
                </g>
                <g transform="matrix(2.21193,0,0,2.27209,-589.115,-409.089)">
                    <path d="M461.321,387.892L448.534,387.892L448.534,416.967L461.321,416.967" style="fill:none;stroke:black;stroke-width:2.48px;stroke-linecap:butt;"/>
                </g>
                <g transform="matrix(2.21193,0,0,2.01878,-589.115,-300.722)">
                    <path d="M461.321,427.231L448.534,427.231L448.534,446.606" style="fill:none;stroke:black;stroke-width:2.62px;stroke-linecap:butt;"/>
                </g>
            </g>
            <g transform="matrix(1.22253,0,0,1.23492,-64.8318,-105.204)">
                <path d="M74.306,600.877L832.55,600.877" style="fill:none;stroke:black;stroke-width:2.57px;"/>
            </g>
            <g transform="matrix(1.06065,0,0,1.23492,-155.084,32.5741)">
                <g transform="matrix(33.3333,0,0,33.3333,275.751,87.3685)">
                    <path d="M0.547,-0L0.547,-0.074L0.367,-0.074L0.367,-0.698L0.236,-0.698L0.051,-0.525L0.1,-0.472L0.276,-0.636L0.283,-0.636L0.283,-0.074L0.088,-0.074L0.088,-0L0.547,-0Z" style="fill-rule:nonzero;"/>
                </g>
                <g transform="matrix(33.3333,0,0,33.3333,295.751,87.3685)">
                    <path d="M0.533,-0.074L0.166,-0.074L0.354,-0.243C0.443,-0.323 0.507,-0.399 0.507,-0.507C0.507,-0.626 0.429,-0.71 0.293,-0.71C0.158,-0.71 0.096,-0.628 0.069,-0.546L0.144,-0.517C0.163,-0.583 0.203,-0.635 0.289,-0.635C0.375,-0.635 0.418,-0.582 0.418,-0.505L0.418,-0.493C0.418,-0.426 0.368,-0.356 0.303,-0.296L0.075,-0.086L0.075,-0L0.533,-0L0.533,-0.074Z" style="fill-rule:nonzero;"/>
                </g>
                <g transform="matrix(33.3333,0,0,33.3333,323.618,87.3685)">
                    <path d="M0.354,-0L0.589,-0.698L0.502,-0.698L0.386,-0.346L0.307,-0.084L0.302,-0.084L0.225,-0.346L0.11,-0.698L0.02,-0.698L0.252,-0L0.354,-0Z" style="fill-rule:nonzero;"/>
                </g>
                <g transform="matrix(33.3333,0,0,33.3333,265.618,120.702)">
                    <path d="M0.3,0.012C0.467,0.012 0.54,-0.121 0.54,-0.349C0.54,-0.577 0.467,-0.71 0.3,-0.71C0.133,-0.71 0.06,-0.577 0.06,-0.349C0.06,-0.121 0.133,0.012 0.3,0.012ZM0.3,-0.061C0.191,-0.061 0.148,-0.157 0.148,-0.292L0.148,-0.406C0.148,-0.541 0.191,-0.637 0.3,-0.637C0.409,-0.637 0.452,-0.541 0.452,-0.406L0.452,-0.292C0.452,-0.157 0.409,-0.061 0.3,-0.061Z" style="fill-rule:nonzero;"/>
                </g>
                <g transform="matrix(33.3333,0,0,33.3333,285.618,120.702)">
                    <path d="M0.136,0.012C0.178,0.012 0.197,-0.012 0.197,-0.046L0.197,-0.059C0.197,-0.093 0.178,-0.117 0.136,-0.117C0.094,-0.117 0.075,-0.093 0.075,-0.059L0.075,-0.046C0.075,-0.012 0.094,0.012 0.136,0.012Z" style="fill-rule:nonzero;"/>
                </g>
                <g transform="matrix(33.3333,0,0,33.3333,294.684,120.702)">
                    <path d="M0.498,-0.698L0.124,-0.698L0.099,-0.314L0.17,-0.304C0.199,-0.336 0.231,-0.363 0.295,-0.363C0.39,-0.363 0.441,-0.31 0.441,-0.218L0.441,-0.208C0.441,-0.116 0.39,-0.063 0.295,-0.063C0.211,-0.063 0.176,-0.1 0.14,-0.155L0.077,-0.107C0.119,-0.047 0.179,0.012 0.295,0.012C0.442,0.012 0.53,-0.083 0.53,-0.219C0.53,-0.354 0.442,-0.435 0.322,-0.435C0.249,-0.435 0.212,-0.405 0.179,-0.358L0.172,-0.358L0.192,-0.624L0.498,-0.624L0.498,-0.698Z" style="fill-rule:nonzero;"/>
                </g>
                <g transform="matrix(33.3333,0,0,33.3333,322.551,120.702)">
                    <path d="M0.618,-0L0.374,-0.698L0.267,-0.698L0.023,-0L0.108,-0L0.178,-0.206L0.46,-0.206L0.53,-0L0.618,-0ZM0.439,-0.28L0.198,-0.28L0.316,-0.62L0.321,-0.62L0.439,-0.28Z" style="fill-rule:nonzero;"/>
                </g>
            </g>
            <g transform="matrix(1.06065,0,0,1.23492,288.433,94.7792)">
                <g transform="matrix(33.3333,0,0,33.3333,266.684,87.3685)">
                    <path d="M0.3,0.012C0.459,0.012 0.542,-0.075 0.542,-0.19C0.542,-0.285 0.485,-0.34 0.401,-0.363L0.401,-0.371C0.474,-0.396 0.521,-0.455 0.521,-0.535C0.521,-0.641 0.439,-0.71 0.3,-0.71C0.161,-0.71 0.079,-0.641 0.079,-0.535C0.079,-0.455 0.126,-0.396 0.199,-0.371L0.199,-0.363C0.115,-0.34 0.058,-0.285 0.058,-0.19C0.058,-0.075 0.141,0.012 0.3,0.012ZM0.3,-0.061C0.203,-0.061 0.147,-0.107 0.147,-0.186L0.147,-0.207C0.147,-0.286 0.203,-0.332 0.3,-0.332C0.397,-0.332 0.453,-0.286 0.453,-0.207L0.453,-0.186C0.453,-0.107 0.397,-0.061 0.3,-0.061ZM0.3,-0.402C0.213,-0.402 0.166,-0.441 0.166,-0.512L0.166,-0.527C0.166,-0.598 0.213,-0.637 0.3,-0.637C0.387,-0.637 0.434,-0.598 0.434,-0.527L0.434,-0.512C0.434,-0.441 0.387,-0.402 0.3,-0.402Z" style="fill-rule:nonzero;"/>
                </g>
                <g transform="matrix(33.3333,0,0,33.3333,286.684,87.3685)">
                    <path d="M0.136,0.012C0.178,0.012 0.197,-0.012 0.197,-0.046L0.197,-0.059C0.197,-0.093 0.178,-0.117 0.136,-0.117C0.094,-0.117 0.075,-0.093 0.075,-0.059L0.075,-0.046C0.075,-0.012 0.094,0.012 0.136,0.012Z" style="fill-rule:nonzero;"/>
                </g>
                <g transform="matrix(33.3333,0,0,33.3333,295.751,87.3685)">
                    <path d="M0.3,0.012C0.459,0.012 0.542,-0.075 0.542,-0.19C0.542,-0.285 0.485,-0.34 0.401,-0.363L0.401,-0.371C0.474,-0.396 0.521,-0.455 0.521,-0.535C0.521,-0.641 0.439,-0.71 0.3,-0.71C0.161,-0.71 0.079,-0.641 0.079,-0.535C0.079,-0.455 0.126,-0.396 0.199,-0.371L0.199,-0.363C0.115,-0.34 0.058,-0.285 0.058,-0.19C0.058,-0.075 0.141,0.012 0.3,0.012ZM0.3,-0.061C0.203,-0.061 0.147,-0.107 0.147,-0.186L0.147,-0.207C0.147,-0.286 0.203,-0.332 0.3,-0.332C0.397,-0.332 0.453,-0.286 0.453,-0.207L0.453,-0.186C0.453,-0.107 0.397,-0.061 0.3,-0.061ZM0.3,-0.402C0.213,-0.402 0.166,-0.441 0.166,-0.512L0.166,-0.527C0.166,-0.598 0.213,-0.637 0.3,-0.637C0.387,-0.637 0.434,-0.598 0.434,-0.527L0.434,-0.512C0.434,-0.441 0.387,-0.402 0.3,-0.402Z" style="fill-rule:nonzero;"/>
                </g>
                <g transform="matrix(33.3333,0,0,33.3333,323.618,87.3685)">
                    <path d="M0.354,-0L0.589,-0.698L0.502,-0.698L0.386,-0.346L0.307,-0.084L0.302,-0.084L0.225,-0.346L0.11,-0.698L0.02,-0.698L0.252,-0L0.354,-0Z" style="fill-rule:nonzero;"/>
                </g>
                <g transform="matrix(33.3333,0,0,33.3333,265.618,120.702)">
                    <path d="M0.3,0.012C0.467,0.012 0.54,-0.121 0.54,-0.349C0.54,-0.577 0.467,-0.71 0.3,-0.71C0.133,-0.71 0.06,-0.577 0.06,-0.349C0.06,-0.121 0.133,0.012 0.3,0.012ZM0.3,-0.061C0.191,-0.061 0.148,-0.157 0.148,-0.292L0.148,-0.406C0.148,-0.541 0.191,-0.637 0.3,-0.637C0.409,-0.637 0.452,-0.541 0.452,-0.406L0.452,-0.292C0.452,-0.157 0.409,-0.061 0.3,-0.061Z" style="fill-rule:nonzero;"/>
                </g>
                <g transform="matrix(33.3333,0,0,33.3333,285.618,120.702)">
                    <path d="M0.136,0.012C0.178,0.012 0.197,-0.012 0.197,-0.046L0.197,-0.059C0.197,-0.093 0.178,-0.117 0.136,-0.117C0.094,-0.117 0.075,-0.093 0.075,-0.059L0.075,-0.046C0.075,-0.012 0.094,0.012 0.136,0.012Z" style="fill-rule:nonzero;"/>
                </g>
                <g transform="matrix(33.3333,0,0,33.3333,294.684,120.702)">
                    <path d="M0.301,0.012C0.441,0.012 0.533,-0.082 0.533,-0.219C0.533,-0.351 0.447,-0.434 0.327,-0.434C0.242,-0.434 0.192,-0.391 0.159,-0.334L0.154,-0.336C0.192,-0.498 0.275,-0.589 0.424,-0.698L0.316,-0.698C0.204,-0.625 0.067,-0.463 0.067,-0.256C0.067,-0.09 0.156,0.012 0.301,0.012ZM0.3,-0.061C0.208,-0.061 0.154,-0.114 0.154,-0.208L0.154,-0.216C0.154,-0.31 0.208,-0.363 0.3,-0.363C0.392,-0.363 0.446,-0.31 0.446,-0.216L0.446,-0.208C0.446,-0.114 0.392,-0.061 0.3,-0.061Z" style="fill-rule:nonzero;"/>
                </g>
                <g transform="matrix(33.3333,0,0,33.3333,322.551,120.702)">
                    <path d="M0.618,-0L0.374,-0.698L0.267,-0.698L0.023,-0L0.108,-0L0.178,-0.206L0.46,-0.206L0.53,-0L0.618,-0ZM0.439,-0.28L0.198,-0.28L0.316,-0.62L0.321,-0.62L0.439,-0.28Z" style="fill-rule:nonzero;"/>
                </g>
            </g>
            <g transform="matrix(1.06065,0,0,1.23492,590.721,181.419)">
                <g transform="matrix(33.3333,0,0,33.3333,266.684,87.3685)">
                    <path d="M0.498,-0.698L0.124,-0.698L0.099,-0.314L0.17,-0.304C0.199,-0.336 0.231,-0.363 0.295,-0.363C0.39,-0.363 0.441,-0.31 0.441,-0.218L0.441,-0.208C0.441,-0.116 0.39,-0.063 0.295,-0.063C0.211,-0.063 0.176,-0.1 0.14,-0.155L0.077,-0.107C0.119,-0.047 0.179,0.012 0.295,0.012C0.442,0.012 0.53,-0.083 0.53,-0.219C0.53,-0.354 0.442,-0.435 0.322,-0.435C0.249,-0.435 0.212,-0.405 0.179,-0.358L0.172,-0.358L0.192,-0.624L0.498,-0.624L0.498,-0.698Z" style="fill-rule:nonzero;"/>
                </g>
                <g transform="matrix(33.3333,0,0,33.3333,286.684,87.3685)">
                    <path d="M0.136,0.012C0.178,0.012 0.197,-0.012 0.197,-0.046L0.197,-0.059C0.197,-0.093 0.178,-0.117 0.136,-0.117C0.094,-0.117 0.075,-0.093 0.075,-0.059L0.075,-0.046C0.075,-0.012 0.094,0.012 0.136,0.012Z" style="fill-rule:nonzero;"/>
                </g>
                <g transform="matrix(33.3333,0,0,33.3333,295.751,87.3685)">
                    <path d="M0.3,0.012C0.467,0.012 0.54,-0.121 0.54,-0.349C0.54,-0.577 0.467,-0.71 0.3,-0.71C0.133,-0.71 0.06,-0.577 0.06,-0.349C0.06,-0.121 0.133,0.012 0.3,0.012ZM0.3,-0.061C0.191,-0.061 0.148,-0.157 0.148,-0.292L0.148,-0.406C0.148,-0.541 0.191,-0.637 0.3,-0.637C0.409,-0.637 0.452,-0.541 0.452,-0.406L0.452,-0.292C0.452,-0.157 0.409,-0.061 0.3,-0.061Z" style="fill-rule:nonzero;"/>
                </g>
                <g transform="matrix(33.3333,0,0,33.3333,323.618,87.3685)">
                    <path d="M0.354,-0L0.589,-0.698L0.502,-0.698L0.386,-0.346L0.307,-0.084L0.302,-0.084L0.225,-0.346L0.11,-0.698L0.02,-0.698L0.252,-0L0.354,-0Z" style="fill-rule:nonzero;"/>
                </g>
                <g transform="matrix(33.3333,0,0,33.3333,245.618,120.702)">
                    <path d="M0.3,0.012C0.467,0.012 0.54,-0.121 0.54,-0.349C0.54,-0.577 0.467,-0.71 0.3,-0.71C0.133,-0.71 0.06,-0.577 0.06,-0.349C0.06,-0.121 0.133,0.012 0.3,0.012ZM0.3,-0.061C0.191,-0.061 0.148,-0.157 0.148,-0.292L0.148,-0.406C0.148,-0.541 0.191,-0.637 0.3,-0.637C0.409,-0.637 0.452,-0.541 0.452,-0.406L0.452,-0.292C0.452,-0.157 0.409,-0.061 0.3,-0.061Z" style="fill-rule:nonzero;"/>
                </g>
                <g transform="matrix(33.3333,0,0,33.3333,265.618,120.702)">
                    <path d="M0.136,0.012C0.178,0.012 0.197,-0.012 0.197,-0.046L0.197,-0.059C0.197,-0.093 0.178,-0.117 0.136,-0.117C0.094,-0.117 0.075,-0.093 0.075,-0.059L0.075,-0.046C0.075,-0.012 0.094,0.012 0.136,0.012Z" style="fill-rule:nonzero;"/>
                </g>
                <g transform="matrix(33.3333,0,0,33.3333,274.684,120.702)">
                    <path d="M0.533,-0.442C0.533,-0.608 0.444,-0.71 0.299,-0.71C0.159,-0.71 0.067,-0.616 0.067,-0.479C0.067,-0.347 0.153,-0.264 0.273,-0.264C0.358,-0.264 0.408,-0.307 0.441,-0.364L0.446,-0.362C0.408,-0.2 0.325,-0.109 0.176,-0L0.284,-0C0.396,-0.073 0.533,-0.235 0.533,-0.442ZM0.3,-0.335C0.208,-0.335 0.154,-0.388 0.154,-0.482L0.154,-0.49C0.154,-0.584 0.208,-0.637 0.3,-0.637C0.392,-0.637 0.446,-0.584 0.446,-0.49L0.446,-0.482C0.446,-0.388 0.392,-0.335 0.3,-0.335Z" style="fill-rule:nonzero;"/>
                </g>
                <g transform="matrix(33.3333,0,0,33.3333,294.684,120.702)">
                    <path d="M0.498,-0.698L0.124,-0.698L0.099,-0.314L0.17,-0.304C0.199,-0.336 0.231,-0.363 0.295,-0.363C0.39,-0.363 0.441,-0.31 0.441,-0.218L0.441,-0.208C0.441,-0.116 0.39,-0.063 0.295,-0.063C0.211,-0.063 0.176,-0.1 0.14,-0.155L0.077,-0.107C0.119,-0.047 0.179,0.012 0.295,0.012C0.442,0.012 0.53,-0.083 0.53,-0.219C0.53,-0.354 0.442,-0.435 0.322,-0.435C0.249,-0.435 0.212,-0.405 0.179,-0.358L0.172,-0.358L0.192,-0.624L0.498,-0.624L0.498,-0.698Z" style="fill-rule:nonzero;"/>
                </g>
                <g transform="matrix(33.3333,0,0,33.3333,322.551,120.702)">
                    <path d="M0.618,-0L0.374,-0.698L0.267,-0.698L0.023,-0L0.108,-0L0.178,-0.206L0.46,-0.206L0.53,-0L0.618,-0ZM0.439,-0.28L0.198,-0.28L0.316,-0.62L0.321,-0.62L0.439,-0.28Z" style="fill-rule:nonzero;"/>
                </g>
            </g>
            <g transform="matrix(1.06065,0,0,1.23492,234.466,-144.556)">
                <g transform="matrix(33.3333,0,0,33.3333,139.17,427.999)">
                    <path d="M0.093,-0L0.41,-0C0.513,-0 0.59,-0.087 0.59,-0.202C0.59,-0.318 0.503,-0.361 0.453,-0.364L0.453,-0.37C0.499,-0.377 0.566,-0.414 0.566,-0.518C0.566,-0.627 0.495,-0.698 0.38,-0.698L0.093,-0.698L0.093,-0ZM0.177,-0.324L0.384,-0.324C0.456,-0.324 0.5,-0.286 0.5,-0.216L0.5,-0.182C0.5,-0.112 0.456,-0.074 0.384,-0.074L0.177,-0.074L0.177,-0.324ZM0.177,-0.624L0.37,-0.624C0.436,-0.624 0.476,-0.589 0.476,-0.527L0.476,-0.493C0.476,-0.431 0.436,-0.396 0.37,-0.396L0.177,-0.396L0.177,-0.624Z" style="fill-rule:nonzero;"/>
                </g>
                <g transform="matrix(33.3333,0,0,33.3333,160.937,427.999)">
                    <path d="M0.403,-0L0.483,-0L0.483,-0.516L0.403,-0.516L0.403,-0.159C0.403,-0.091 0.341,-0.06 0.278,-0.06C0.201,-0.06 0.16,-0.107 0.16,-0.199L0.16,-0.516L0.08,-0.516L0.08,-0.185C0.08,-0.06 0.148,0.012 0.254,0.012C0.34,0.012 0.379,-0.035 0.399,-0.084L0.403,-0.084L0.403,-0Z" style="fill-rule:nonzero;"/>
                </g>
                <g transform="matrix(33.3333,0,0,33.3333,179.87,427.999)">
                    <path d="M0.277,0.012C0.375,0.012 0.442,-0.036 0.475,-0.11L0.417,-0.149C0.389,-0.09 0.342,-0.059 0.277,-0.059C0.182,-0.059 0.133,-0.124 0.133,-0.214L0.133,-0.302C0.133,-0.392 0.182,-0.457 0.277,-0.457C0.34,-0.457 0.384,-0.426 0.403,-0.373L0.47,-0.407C0.44,-0.478 0.379,-0.528 0.277,-0.528C0.132,-0.528 0.047,-0.423 0.047,-0.258C0.047,-0.093 0.132,0.012 0.277,0.012Z" style="fill-rule:nonzero;"/>
                </g>
                <g transform="matrix(33.3333,0,0,33.3333,196.637,427.999)">
                    <path d="M0.085,-0L0.165,-0L0.165,-0.184L0.242,-0.263L0.413,-0L0.51,-0L0.3,-0.312L0.491,-0.516L0.394,-0.516L0.248,-0.359L0.169,-0.271L0.165,-0.271L0.165,-0.74L0.085,-0.74L0.085,-0Z" style="fill-rule:nonzero;"/>
                </g>
                <g transform="matrix(33.3333,0,0,33.3333,222.07,427.999)">
                    <path d="M0.547,-0L0.547,-0.074L0.367,-0.074L0.367,-0.698L0.236,-0.698L0.051,-0.525L0.1,-0.472L0.276,-0.636L0.283,-0.636L0.283,-0.074L0.088,-0.074L0.088,-0L0.547,-0Z" style="fill-rule:nonzero;"/>
                </g>
            </g>
            <g transform="matrix(1.06065,0,0,1.23492,133.779,-225.566)">
                <g transform="matrix(25,0,0,25,139.17,427.999)">
                    <path d="M0.339,0.012C0.455,0.012 0.54,-0.049 0.584,-0.147L0.517,-0.189C0.489,-0.113 0.428,-0.063 0.339,-0.063C0.219,-0.063 0.148,-0.15 0.148,-0.293L0.148,-0.397C0.148,-0.54 0.219,-0.635 0.339,-0.635C0.425,-0.635 0.483,-0.588 0.511,-0.516L0.579,-0.557C0.535,-0.654 0.455,-0.71 0.339,-0.71C0.163,-0.71 0.058,-0.578 0.058,-0.345C0.058,-0.112 0.163,0.012 0.339,0.012Z" style="fill-rule:nonzero;"/>
                </g>
                <g transform="matrix(25,0,0,25,154.695,427.999)">
                    <path d="M0.403,-0L0.483,-0L0.483,-0.516L0.403,-0.516L0.403,-0.159C0.403,-0.091 0.341,-0.06 0.278,-0.06C0.201,-0.06 0.16,-0.107 0.16,-0.199L0.16,-0.516L0.08,-0.516L0.08,-0.185C0.08,-0.06 0.148,0.012 0.254,0.012C0.34,0.012 0.379,-0.035 0.399,-0.084L0.403,-0.084L0.403,-0Z" style="fill-rule:nonzero;"/>
                </g>
                <g transform="matrix(25,0,0,25,168.895,427.999)">
                    <path d="M0.165,-0L0.165,-0.35C0.165,-0.399 0.217,-0.436 0.303,-0.436L0.35,-0.436L0.35,-0.516L0.319,-0.516C0.235,-0.516 0.188,-0.47 0.17,-0.421L0.165,-0.421L0.165,-0.516L0.085,-0.516L0.085,-0L0.165,-0Z" style="fill-rule:nonzero;"/>
                </g>
                <g transform="matrix(25,0,0,25,176.07,427.999)">
                    <path d="M0.136,0.012C0.178,0.012 0.197,-0.012 0.197,-0.046L0.197,-0.059C0.197,-0.093 0.178,-0.117 0.136,-0.117C0.094,-0.117 0.075,-0.093 0.075,-0.059L0.075,-0.046C0.075,-0.012 0.094,0.012 0.136,0.012Z" style="fill-rule:nonzero;"/>
                </g>
                <g transform="matrix(25,0,0,25,139.17,452.999)">
                    <path d="M0.241,-0L0.241,-0.07L0.165,-0.07L0.165,-0.74L0.085,-0.74L0.085,-0.083C0.085,-0.035 0.115,-0 0.17,-0L0.241,-0Z" style="fill-rule:nonzero;"/>
                </g>
                <g transform="matrix(25,0,0,25,145.97,452.999)">
                    <path d="M0.125,-0.637C0.159,-0.637 0.174,-0.655 0.174,-0.682L0.174,-0.695C0.174,-0.722 0.159,-0.74 0.125,-0.74C0.091,-0.74 0.076,-0.722 0.076,-0.695L0.076,-0.682C0.076,-0.655 0.091,-0.637 0.125,-0.637ZM0.085,-0L0.165,-0L0.165,-0.516L0.085,-0.516L0.085,-0Z" style="fill-rule:nonzero;"/>
                </g>
                <g transform="matrix(25,0,0,25,152.22,452.999)">
                    <path d="M0.165,-0L0.165,-0.358C0.165,-0.424 0.225,-0.456 0.288,-0.456C0.364,-0.456 0.399,-0.409 0.399,-0.317L0.399,-0L0.479,-0L0.479,-0.358C0.479,-0.424 0.537,-0.456 0.6,-0.456C0.678,-0.456 0.713,-0.408 0.713,-0.317L0.713,-0L0.793,-0L0.793,-0.331C0.793,-0.456 0.73,-0.528 0.625,-0.528C0.537,-0.528 0.487,-0.479 0.468,-0.423L0.466,-0.423C0.438,-0.497 0.376,-0.528 0.308,-0.528C0.228,-0.528 0.192,-0.485 0.169,-0.432L0.165,-0.432L0.165,-0.516L0.085,-0.516L0.085,-0L0.165,-0Z" style="fill-rule:nonzero;"/>
                </g>
                <g transform="matrix(25,0,0,25,174.045,452.999)">
                    <path d="M0.136,0.012C0.178,0.012 0.197,-0.012 0.197,-0.046L0.197,-0.059C0.197,-0.093 0.178,-0.117 0.136,-0.117C0.094,-0.117 0.075,-0.093 0.075,-0.059L0.075,-0.046C0.075,-0.012 0.094,0.012 0.136,0.012Z" style="fill-rule:nonzero;"/>
                </g>
            </g>
            <g transform="matrix(1.06065,0,0,1.23492,360.54,169.249)">
                <g transform="matrix(33.3333,0,0,33.3333,119.67,427.999)">
                    <path d="M0.289,0.012C0.439,0.012 0.529,-0.07 0.529,-0.198C0.529,-0.302 0.47,-0.362 0.334,-0.393L0.277,-0.406C0.189,-0.426 0.146,-0.456 0.146,-0.522C0.146,-0.597 0.201,-0.636 0.29,-0.636C0.371,-0.636 0.424,-0.603 0.462,-0.55L0.525,-0.596C0.473,-0.67 0.399,-0.71 0.294,-0.71C0.157,-0.71 0.063,-0.643 0.063,-0.519C0.063,-0.412 0.133,-0.356 0.26,-0.327L0.317,-0.314C0.409,-0.293 0.446,-0.26 0.446,-0.194C0.446,-0.114 0.392,-0.062 0.292,-0.062C0.211,-0.062 0.153,-0.097 0.104,-0.162L0.042,-0.11C0.098,-0.034 0.177,0.012 0.289,0.012Z" style="fill-rule:nonzero;"/>
                </g>
                <g transform="matrix(33.3333,0,0,33.3333,139.037,427.999)">
                    <path d="M0.403,-0L0.483,-0L0.483,-0.516L0.403,-0.516L0.403,-0.159C0.403,-0.091 0.341,-0.06 0.278,-0.06C0.201,-0.06 0.16,-0.107 0.16,-0.199L0.16,-0.516L0.08,-0.516L0.08,-0.185C0.08,-0.06 0.148,0.012 0.254,0.012C0.34,0.012 0.379,-0.035 0.399,-0.084L0.403,-0.084L0.403,-0Z" style="fill-rule:nonzero;"/>
                </g>
                <g transform="matrix(33.3333,0,0,33.3333,157.97,427.999)">
                    <path d="M0.085,0.2L0.165,0.2L0.165,-0.084L0.169,-0.084C0.2,-0.02 0.249,0.012 0.32,0.012C0.449,0.012 0.53,-0.093 0.53,-0.258C0.53,-0.423 0.449,-0.528 0.32,-0.528C0.249,-0.528 0.196,-0.497 0.169,-0.432L0.165,-0.432L0.165,-0.516L0.085,-0.516L0.085,0.2ZM0.298,-0.06C0.225,-0.06 0.165,-0.098 0.165,-0.165L0.165,-0.357C0.165,-0.414 0.225,-0.456 0.298,-0.456C0.388,-0.456 0.444,-0.394 0.444,-0.302L0.444,-0.214C0.444,-0.122 0.388,-0.06 0.298,-0.06Z" style="fill-rule:nonzero;"/>
                </g>
                <g transform="matrix(33.3333,0,0,33.3333,177.304,427.999)">
                    <path d="M0.279,0.012C0.376,0.012 0.45,-0.036 0.483,-0.106L0.426,-0.147C0.399,-0.09 0.349,-0.058 0.284,-0.058C0.188,-0.058 0.131,-0.125 0.131,-0.214L0.131,-0.238L0.502,-0.238L0.502,-0.276C0.502,-0.422 0.417,-0.528 0.279,-0.528C0.139,-0.528 0.047,-0.422 0.047,-0.258C0.047,-0.094 0.139,0.012 0.279,0.012ZM0.279,-0.461C0.361,-0.461 0.416,-0.4 0.416,-0.309L0.416,-0.298L0.131,-0.298L0.131,-0.305C0.131,-0.395 0.192,-0.461 0.279,-0.461Z" style="fill-rule:nonzero;"/>
                </g>
                <g transform="matrix(33.3333,0,0,33.3333,195.604,427.999)">
                    <path d="M0.165,-0L0.165,-0.35C0.165,-0.399 0.217,-0.436 0.303,-0.436L0.35,-0.436L0.35,-0.516L0.319,-0.516C0.235,-0.516 0.188,-0.47 0.17,-0.421L0.165,-0.421L0.165,-0.516L0.085,-0.516L0.085,-0L0.165,-0Z" style="fill-rule:nonzero;"/>
                </g>
                <g transform="matrix(33.3333,0,0,33.3333,207.67,427.999)">
                    <path d="M0.277,0.012C0.375,0.012 0.442,-0.036 0.475,-0.11L0.417,-0.149C0.389,-0.09 0.342,-0.059 0.277,-0.059C0.182,-0.059 0.133,-0.124 0.133,-0.214L0.133,-0.302C0.133,-0.392 0.182,-0.457 0.277,-0.457C0.34,-0.457 0.384,-0.426 0.403,-0.373L0.47,-0.407C0.44,-0.478 0.379,-0.528 0.277,-0.528C0.132,-0.528 0.047,-0.423 0.047,-0.258C0.047,-0.093 0.132,0.012 0.277,0.012Z" style="fill-rule:nonzero;"/>
                </g>
                <g transform="matrix(33.3333,0,0,33.3333,224.437,427.999)">
                    <path d="M0.505,-0L0.505,-0.07L0.446,-0.07L0.446,-0.354C0.446,-0.463 0.372,-0.528 0.248,-0.528C0.155,-0.528 0.093,-0.482 0.065,-0.427L0.113,-0.382C0.141,-0.429 0.182,-0.459 0.244,-0.459C0.326,-0.459 0.366,-0.419 0.366,-0.346L0.366,-0.295L0.264,-0.295C0.114,-0.295 0.044,-0.241 0.044,-0.144C0.044,-0.048 0.108,0.012 0.217,0.012C0.289,0.012 0.344,-0.021 0.366,-0.084L0.371,-0.084C0.377,-0.036 0.401,-0 0.46,-0L0.505,-0ZM0.23,-0.056C0.168,-0.056 0.128,-0.085 0.128,-0.136L0.128,-0.157C0.128,-0.207 0.169,-0.235 0.26,-0.235L0.366,-0.235L0.366,-0.15C0.366,-0.097 0.309,-0.056 0.23,-0.056Z" style="fill-rule:nonzero;"/>
                </g>
                <g transform="matrix(33.3333,0,0,33.3333,242.237,427.999)">
                    <path d="M0.085,0.2L0.165,0.2L0.165,-0.084L0.169,-0.084C0.2,-0.02 0.249,0.012 0.32,0.012C0.449,0.012 0.53,-0.093 0.53,-0.258C0.53,-0.423 0.449,-0.528 0.32,-0.528C0.249,-0.528 0.196,-0.497 0.169,-0.432L0.165,-0.432L0.165,-0.516L0.085,-0.516L0.085,0.2ZM0.298,-0.06C0.225,-0.06 0.165,-0.098 0.165,-0.165L0.165,-0.357C0.165,-0.414 0.225,-0.456 0.298,-0.456C0.388,-0.456 0.444,-0.394 0.444,-0.302L0.444,-0.214C0.444,-0.122 0.388,-0.06 0.298,-0.06Z" style="fill-rule:nonzero;"/>
                </g>
                <g transform="matrix(33.3333,0,0,33.3333,153.804,461.332)">
                    <path d="M0.085,-0L0.165,-0L0.165,-0.084L0.169,-0.084C0.2,-0.02 0.249,0.012 0.32,0.012C0.449,0.012 0.53,-0.093 0.53,-0.258C0.53,-0.423 0.449,-0.528 0.32,-0.528C0.249,-0.528 0.196,-0.497 0.169,-0.432L0.165,-0.432L0.165,-0.74L0.085,-0.74L0.085,-0ZM0.298,-0.06C0.225,-0.06 0.165,-0.098 0.165,-0.165L0.165,-0.357C0.165,-0.414 0.225,-0.456 0.298,-0.456C0.388,-0.456 0.444,-0.394 0.444,-0.302L0.444,-0.214C0.444,-0.122 0.388,-0.06 0.298,-0.06Z" style="fill-rule:nonzero;"/>
                </g>
                <g transform="matrix(33.3333,0,0,33.3333,173.137,461.332)">
                    <path d="M0.505,-0L0.505,-0.07L0.446,-0.07L0.446,-0.354C0.446,-0.463 0.372,-0.528 0.248,-0.528C0.155,-0.528 0.093,-0.482 0.065,-0.427L0.113,-0.382C0.141,-0.429 0.182,-0.459 0.244,-0.459C0.326,-0.459 0.366,-0.419 0.366,-0.346L0.366,-0.295L0.264,-0.295C0.114,-0.295 0.044,-0.241 0.044,-0.144C0.044,-0.048 0.108,0.012 0.217,0.012C0.289,0.012 0.344,-0.021 0.366,-0.084L0.371,-0.084C0.377,-0.036 0.401,-0 0.46,-0L0.505,-0ZM0.23,-0.056C0.168,-0.056 0.128,-0.085 0.128,-0.136L0.128,-0.157C0.128,-0.207 0.169,-0.235 0.26,-0.235L0.366,-0.235L0.366,-0.15C0.366,-0.097 0.309,-0.056 0.23,-0.056Z" style="fill-rule:nonzero;"/>
                </g>
                <g transform="matrix(33.3333,0,0,33.3333,190.937,461.332)">
                    <path d="M0.165,-0L0.165,-0.358C0.165,-0.424 0.227,-0.456 0.291,-0.456C0.368,-0.456 0.408,-0.409 0.408,-0.317L0.408,-0L0.488,-0L0.488,-0.331C0.488,-0.456 0.421,-0.528 0.315,-0.528C0.238,-0.528 0.194,-0.49 0.169,-0.432L0.165,-0.432L0.165,-0.516L0.085,-0.516L0.085,-0L0.165,-0Z" style="fill-rule:nonzero;"/>
                </g>
                <g transform="matrix(33.3333,0,0,33.3333,209.87,461.332)">
                    <path d="M0.085,-0L0.165,-0L0.165,-0.184L0.242,-0.263L0.413,-0L0.51,-0L0.3,-0.312L0.491,-0.516L0.394,-0.516L0.248,-0.359L0.169,-0.271L0.165,-0.271L0.165,-0.74L0.085,-0.74L0.085,-0Z" style="fill-rule:nonzero;"/>
                </g>
            </g>
            <g transform="matrix(1.06065,0,0,1.23492,572.052,-69.5351)">
                <g transform="matrix(33.3333,0,0,33.3333,139.17,427.999)">
                    <path d="M0.093,-0L0.41,-0C0.513,-0 0.59,-0.087 0.59,-0.202C0.59,-0.318 0.503,-0.361 0.453,-0.364L0.453,-0.37C0.499,-0.377 0.566,-0.414 0.566,-0.518C0.566,-0.627 0.495,-0.698 0.38,-0.698L0.093,-0.698L0.093,-0ZM0.177,-0.324L0.384,-0.324C0.456,-0.324 0.5,-0.286 0.5,-0.216L0.5,-0.182C0.5,-0.112 0.456,-0.074 0.384,-0.074L0.177,-0.074L0.177,-0.324ZM0.177,-0.624L0.37,-0.624C0.436,-0.624 0.476,-0.589 0.476,-0.527L0.476,-0.493C0.476,-0.431 0.436,-0.396 0.37,-0.396L0.177,-0.396L0.177,-0.624Z" style="fill-rule:nonzero;"/>
                </g>
                <g transform="matrix(33.3333,0,0,33.3333,160.937,427.999)">
                    <path d="M0.403,-0L0.483,-0L0.483,-0.516L0.403,-0.516L0.403,-0.159C0.403,-0.091 0.341,-0.06 0.278,-0.06C0.201,-0.06 0.16,-0.107 0.16,-0.199L0.16,-0.516L0.08,-0.516L0.08,-0.185C0.08,-0.06 0.148,0.012 0.254,0.012C0.34,0.012 0.379,-0.035 0.399,-0.084L0.403,-0.084L0.403,-0Z" style="fill-rule:nonzero;"/>
                </g>
                <g transform="matrix(33.3333,0,0,33.3333,179.87,427.999)">
                    <path d="M0.277,0.012C0.375,0.012 0.442,-0.036 0.475,-0.11L0.417,-0.149C0.389,-0.09 0.342,-0.059 0.277,-0.059C0.182,-0.059 0.133,-0.124 0.133,-0.214L0.133,-0.302C0.133,-0.392 0.182,-0.457 0.277,-0.457C0.34,-0.457 0.384,-0.426 0.403,-0.373L0.47,-0.407C0.44,-0.478 0.379,-0.528 0.277,-0.528C0.132,-0.528 0.047,-0.423 0.047,-0.258C0.047,-0.093 0.132,0.012 0.277,0.012Z" style="fill-rule:nonzero;"/>
                </g>
                <g transform="matrix(33.3333,0,0,33.3333,196.637,427.999)">
                    <path d="M0.085,-0L0.165,-0L0.165,-0.184L0.242,-0.263L0.413,-0L0.51,-0L0.3,-0.312L0.491,-0.516L0.394,-0.516L0.248,-0.359L0.169,-0.271L0.165,-0.271L0.165,-0.74L0.085,-0.74L0.085,-0Z" style="fill-rule:nonzero;"/>
                </g>
                <g transform="matrix(33.3333,0,0,33.3333,222.07,427.999)">
                    <path d="M0.533,-0.074L0.166,-0.074L0.354,-0.243C0.443,-0.323 0.507,-0.399 0.507,-0.507C0.507,-0.626 0.429,-0.71 0.293,-0.71C0.158,-0.71 0.096,-0.628 0.069,-0.546L0.144,-0.517C0.163,-0.583 0.203,-0.635 0.289,-0.635C0.375,-0.635 0.418,-0.582 0.418,-0.505L0.418,-0.493C0.418,-0.426 0.368,-0.356 0.303,-0.296L0.075,-0.086L0.075,-0L0.533,-0L0.533,-0.074Z" style="fill-rule:nonzero;"/>
                </g>
            </g>
            <g transform="matrix(1.06065,0,0,1.23492,-71.494,-47.4706)">
                <g transform="matrix(33.3333,0,0,33.3333,144.957,90.4259)">
                    <path d="M0.382,-0L0.382,-0.121L0.292,-0.121L0.292,-0.577L0.382,-0.577L0.382,-0.698L0.05,-0.698L0.05,-0.577L0.14,-0.577L0.14,-0.121L0.05,-0.121L0.05,-0L0.382,-0Z" style="fill-rule:nonzero;"/>
                </g>
                <g transform="matrix(33.3333,0,0,33.3333,159.357,90.4259)">
                    <path d="M0.217,-0L0.217,-0.34C0.217,-0.392 0.264,-0.417 0.312,-0.417C0.366,-0.417 0.385,-0.384 0.385,-0.317L0.385,-0L0.533,-0L0.533,-0.329C0.533,-0.461 0.476,-0.537 0.369,-0.537C0.286,-0.537 0.242,-0.491 0.223,-0.436L0.217,-0.436L0.217,-0.525L0.069,-0.525L0.069,-0L0.217,-0Z" style="fill-rule:nonzero;"/>
                </g>
                <g transform="matrix(33.3333,0,0,33.3333,179.224,90.4259)">
                    <path d="M0.069,0.2L0.217,0.2L0.217,-0.088L0.222,-0.088C0.237,-0.031 0.295,0.012 0.363,0.012C0.496,0.012 0.565,-0.085 0.565,-0.263C0.565,-0.441 0.496,-0.537 0.363,-0.537C0.295,-0.537 0.237,-0.495 0.222,-0.437L0.217,-0.437L0.217,-0.525L0.069,-0.525L0.069,0.2ZM0.314,-0.108C0.258,-0.108 0.217,-0.137 0.217,-0.185L0.217,-0.34C0.217,-0.388 0.258,-0.417 0.314,-0.417C0.37,-0.417 0.411,-0.374 0.411,-0.308L0.411,-0.217C0.411,-0.151 0.37,-0.108 0.314,-0.108Z" style="fill-rule:nonzero;"/>
                </g>
                <g transform="matrix(33.3333,0,0,33.3333,199.49,90.4259)">
                    <path d="M0.379,-0L0.527,-0L0.527,-0.525L0.379,-0.525L0.379,-0.184C0.379,-0.134 0.332,-0.108 0.286,-0.108C0.232,-0.108 0.211,-0.144 0.211,-0.208L0.211,-0.525L0.063,-0.525L0.063,-0.195C0.063,-0.063 0.12,0.012 0.227,0.012C0.313,0.012 0.356,-0.035 0.374,-0.088L0.379,-0.088L0.379,-0Z" style="fill-rule:nonzero;"/>
                </g>
                <g transform="matrix(33.3333,0,0,33.3333,219.357,90.4259)">
                    <path d="M0.341,-0L0.341,-0.115L0.245,-0.115L0.245,-0.41L0.349,-0.41L0.349,-0.525L0.245,-0.525L0.245,-0.667L0.112,-0.667L0.112,-0.581C0.112,-0.545 0.1,-0.525 0.06,-0.525L0.023,-0.525L0.023,-0.41L0.097,-0.41L0.097,-0.153C0.097,-0.053 0.151,-0 0.253,-0L0.341,-0Z" style="fill-rule:nonzero;"/>
                </g>
            </g>
            <g transform="matrix(1.06065,0,0,1.23492,381.81,-47.4706)">
                <g transform="matrix(33.3333,0,0,33.3333,144.957,90.4259)">
                    <path d="M0.303,0.012C0.477,0.012 0.575,-0.081 0.575,-0.215C0.575,-0.335 0.506,-0.399 0.363,-0.422L0.294,-0.433C0.236,-0.442 0.211,-0.46 0.211,-0.508C0.211,-0.55 0.244,-0.576 0.312,-0.576C0.384,-0.576 0.429,-0.549 0.462,-0.51L0.563,-0.612C0.506,-0.675 0.426,-0.71 0.321,-0.71C0.157,-0.71 0.059,-0.623 0.059,-0.498C0.059,-0.381 0.126,-0.309 0.273,-0.29L0.342,-0.281C0.407,-0.272 0.423,-0.244 0.423,-0.206C0.423,-0.155 0.387,-0.122 0.313,-0.122C0.245,-0.122 0.185,-0.149 0.138,-0.202L0.038,-0.101C0.098,-0.035 0.181,0.012 0.303,0.012Z" style="fill-rule:nonzero;"/>
                </g>
                <g transform="matrix(33.3333,0,0,33.3333,165.757,90.4259)">
                    <path d="M0.379,-0L0.527,-0L0.527,-0.525L0.379,-0.525L0.379,-0.184C0.379,-0.134 0.332,-0.108 0.286,-0.108C0.232,-0.108 0.211,-0.144 0.211,-0.208L0.211,-0.525L0.063,-0.525L0.063,-0.195C0.063,-0.063 0.12,0.012 0.227,0.012C0.313,0.012 0.356,-0.035 0.374,-0.088L0.379,-0.088L0.379,-0Z" style="fill-rule:nonzero;"/>
                </g>
                <g transform="matrix(33.3333,0,0,33.3333,185.624,90.4259)">
                    <path d="M0.069,0.2L0.217,0.2L0.217,-0.088L0.222,-0.088C0.237,-0.031 0.295,0.012 0.363,0.012C0.496,0.012 0.565,-0.085 0.565,-0.263C0.565,-0.441 0.496,-0.537 0.363,-0.537C0.295,-0.537 0.237,-0.495 0.222,-0.437L0.217,-0.437L0.217,-0.525L0.069,-0.525L0.069,0.2ZM0.314,-0.108C0.258,-0.108 0.217,-0.137 0.217,-0.185L0.217,-0.34C0.217,-0.388 0.258,-0.417 0.314,-0.417C0.37,-0.417 0.411,-0.374 0.411,-0.308L0.411,-0.217C0.411,-0.151 0.37,-0.108 0.314,-0.108Z" style="fill-rule:nonzero;"/>
                </g>
                <g transform="matrix(33.3333,0,0,33.3333,205.89,90.4259)">
                    <path d="M0.288,0.012C0.384,0.012 0.461,-0.021 0.508,-0.075L0.434,-0.167C0.401,-0.133 0.367,-0.104 0.305,-0.104C0.226,-0.104 0.189,-0.148 0.189,-0.217L0.189,-0.225L0.526,-0.225L0.526,-0.269C0.526,-0.411 0.456,-0.537 0.282,-0.537C0.124,-0.537 0.036,-0.429 0.036,-0.263C0.036,-0.095 0.127,0.012 0.288,0.012ZM0.285,-0.428C0.344,-0.428 0.373,-0.385 0.373,-0.321L0.373,-0.312L0.189,-0.312L0.189,-0.32C0.189,-0.385 0.226,-0.428 0.285,-0.428Z" style="fill-rule:nonzero;"/>
                </g>
                <g transform="matrix(33.3333,0,0,33.3333,224.624,90.4259)">
                    <path d="M0.217,-0L0.217,-0.307C0.217,-0.368 0.259,-0.387 0.345,-0.387L0.382,-0.387L0.382,-0.525L0.356,-0.525C0.274,-0.525 0.234,-0.469 0.222,-0.411L0.217,-0.411L0.217,-0.525L0.069,-0.525L0.069,-0L0.217,-0Z" style="fill-rule:nonzero;"/>
                </g>
                <g transform="matrix(33.3333,0,0,33.3333,237.924,90.4259)">
                    <path d="M0.281,0.012C0.384,0.012 0.459,-0.033 0.494,-0.133L0.379,-0.183C0.364,-0.141 0.34,-0.105 0.281,-0.105C0.221,-0.105 0.19,-0.147 0.19,-0.213L0.19,-0.311C0.19,-0.377 0.221,-0.42 0.281,-0.42C0.333,-0.42 0.362,-0.388 0.371,-0.348L0.491,-0.4C0.46,-0.486 0.387,-0.537 0.281,-0.537C0.123,-0.537 0.036,-0.431 0.036,-0.263C0.036,-0.095 0.123,0.012 0.281,0.012Z" style="fill-rule:nonzero;"/>
                </g>
                <g transform="matrix(33.3333,0,0,33.3333,255.157,90.4259)">
                    <path d="M0.539,-0L0.539,-0.115L0.49,-0.115L0.49,-0.345C0.49,-0.469 0.414,-0.537 0.266,-0.537C0.156,-0.537 0.096,-0.499 0.054,-0.437L0.142,-0.359C0.165,-0.391 0.196,-0.421 0.255,-0.421C0.317,-0.421 0.342,-0.389 0.342,-0.338L0.342,-0.305L0.259,-0.305C0.12,-0.305 0.034,-0.252 0.034,-0.141C0.034,-0.05 0.092,0.012 0.197,0.012C0.277,0.012 0.335,-0.024 0.351,-0.092L0.357,-0.092C0.366,-0.036 0.404,-0 0.457,-0L0.539,-0ZM0.252,-0.091C0.208,-0.091 0.183,-0.109 0.183,-0.147L0.183,-0.162C0.183,-0.2 0.213,-0.221 0.27,-0.221L0.342,-0.221L0.342,-0.159C0.342,-0.111 0.301,-0.091 0.252,-0.091Z" style="fill-rule:nonzero;"/>
                </g>
                <g transform="matrix(33.3333,0,0,33.3333,274.124,90.4259)">
                    <path d="M0.069,0.2L0.217,0.2L0.217,-0.088L0.222,-0.088C0.237,-0.031 0.295,0.012 0.363,0.012C0.496,0.012 0.565,-0.085 0.565,-0.263C0.565,-0.441 0.496,-0.537 0.363,-0.537C0.295,-0.537 0.237,-0.495 0.222,-0.437L0.217,-0.437L0.217,-0.525L0.069,-0.525L0.069,0.2ZM0.314,-0.108C0.258,-0.108 0.217,-0.137 0.217,-0.185L0.217,-0.34C0.217,-0.388 0.258,-0.417 0.314,-0.417C0.37,-0.417 0.411,-0.374 0.411,-0.308L0.411,-0.217C0.411,-0.151 0.37,-0.108 0.314,-0.108Z" style="fill-rule:nonzero;"/>
                </g>
            </g>
            <g transform="matrix(1.06065,0,0,1.23492,159.912,-42.7123)">
                <g transform="matrix(33.3333,0,0,33.3333,679.136,86.5729)">
                    <path d="M0.357,0.012C0.542,0.012 0.664,-0.112 0.664,-0.349C0.664,-0.586 0.542,-0.71 0.357,-0.71C0.172,-0.71 0.05,-0.586 0.05,-0.349C0.05,-0.112 0.172,0.012 0.357,0.012ZM0.357,-0.123C0.266,-0.123 0.211,-0.186 0.211,-0.297L0.211,-0.401C0.211,-0.512 0.266,-0.575 0.357,-0.575C0.448,-0.575 0.503,-0.512 0.503,-0.401L0.503,-0.297C0.503,-0.186 0.448,-0.123 0.357,-0.123Z" style="fill-rule:nonzero;"/>
                </g>
                <g transform="matrix(33.3333,0,0,33.3333,702.936,86.5729)">
                    <path d="M0.379,-0L0.527,-0L0.527,-0.525L0.379,-0.525L0.379,-0.184C0.379,-0.134 0.332,-0.108 0.286,-0.108C0.232,-0.108 0.211,-0.144 0.211,-0.208L0.211,-0.525L0.063,-0.525L0.063,-0.195C0.063,-0.063 0.12,0.012 0.227,0.012C0.313,0.012 0.356,-0.035 0.374,-0.088L0.379,-0.088L0.379,-0Z" style="fill-rule:nonzero;"/>
                </g>
                <g transform="matrix(33.3333,0,0,33.3333,722.802,86.5729)">
                    <path d="M0.341,-0L0.341,-0.115L0.245,-0.115L0.245,-0.41L0.349,-0.41L0.349,-0.525L0.245,-0.525L0.245,-0.667L0.112,-0.667L0.112,-0.581C0.112,-0.545 0.1,-0.525 0.06,-0.525L0.023,-0.525L0.023,-0.41L0.097,-0.41L0.097,-0.153C0.097,-0.053 0.151,-0 0.253,-0L0.341,-0Z" style="fill-rule:nonzero;"/>
                </g>
                <g transform="matrix(33.3333,0,0,33.3333,735.569,86.5729)">
                    <path d="M0.069,0.2L0.217,0.2L0.217,-0.088L0.222,-0.088C0.237,-0.031 0.295,0.012 0.363,0.012C0.496,0.012 0.565,-0.085 0.565,-0.263C0.565,-0.441 0.496,-0.537 0.363,-0.537C0.295,-0.537 0.237,-0.495 0.222,-0.437L0.217,-0.437L0.217,-0.525L0.069,-0.525L0.069,0.2ZM0.314,-0.108C0.258,-0.108 0.217,-0.137 0.217,-0.185L0.217,-0.34C0.217,-0.388 0.258,-0.417 0.314,-0.417C0.37,-0.417 0.411,-0.374 0.411,-0.308L0.411,-0.217C0.411,-0.151 0.37,-0.108 0.314,-0.108Z" style="fill-rule:nonzero;"/>
                </g>
                <g transform="matrix(33.3333,0,0,33.3333,755.836,86.5729)">
                    <path d="M0.379,-0L0.527,-0L0.527,-0.525L0.379,-0.525L0.379,-0.184C0.379,-0.134 0.332,-0.108 0.286,-0.108C0.232,-0.108 0.211,-0.144 0.211,-0.208L0.211,-0.525L0.063,-0.525L0.063,-0.195C0.063,-0.063 0.12,0.012 0.227,0.012C0.313,0.012 0.356,-0.035 0.374,-0.088L0.379,-0.088L0.379,-0Z" style="fill-rule:nonzero;"/>
                </g>
                <g transform="matrix(33.3333,0,0,33.3333,775.702,86.5729)">
                    <path d="M0.341,-0L0.341,-0.115L0.245,-0.115L0.245,-0.41L0.349,-0.41L0.349,-0.525L0.245,-0.525L0.245,-0.667L0.112,-0.667L0.112,-0.581C0.112,-0.545 0.1,-0.525 0.06,-0.525L0.023,-0.525L0.023,-0.41L0.097,-0.41L0.097,-0.153C0.097,-0.053 0.151,-0 0.253,-0L0.341,-0Z" style="fill-rule:nonzero;"/>
                </g>
            </g>
            <g transform="matrix(1.06065,0,0,1.23492,3.10304,-125.697)">
                <g>
                    <rect x="263.824" y="225.642" width="90.589" height="90.589" style="fill:white;stroke:black;stroke-width:4.17px;stroke-linecap:butt;"/>
                    <circle cx="307.962" cy="270.936" r="3.932" style="fill:white;stroke:black;stroke-width:4.17px;stroke-linecap:butt;"/>
                    <g transform="matrix(0.707107,-0.707107,0.707107,0.707107,-101.289,297.338)">
                        <path d="M288.4,270.936L328.148,270.936" style="fill:none;stroke:black;stroke-width:4.17px;"/>
                    </g>
                </g>
                <g transform="matrix(1,0,0,0.812199,1.15732,53.0769)">
                    <g transform="matrix(1,0,0,0.979116,0,4.97866)">
                        <path d="M277.555,238.4L338.368,238.4" style="fill:none;stroke:black;stroke-width:4.61px;stroke-linecap:butt;"/>
                    </g>
                    <g transform="matrix(1,0,0,0.979116,0,64.6461)">
                        <path d="M277.555,238.4L338.368,238.4" style="fill:none;stroke:black;stroke-width:4.61px;stroke-linecap:butt;"/>
                    </g>
                </g>
            </g>
        </g>
    </g>
</svg>
