<?xml version="1.0" encoding="UTF-8" standalone="no"?>
<!DOCTYPE svg PUBLIC "-//W3C//DTD SVG 1.1//EN" "http://www.w3.org/Graphics/SVG/1.1/DTD/svg11.dtd">
<svg width="25%" height="25%" viewBox="0 0 2206 1015" version="1.1" xmlns="http://www.w3.org/2000/svg" xmlns:xlink="http://www.w3.org/1999/xlink" xml:space="preserve" xmlns:serif="http://www.serif.com/" style="fill-rule:evenodd;clip-rule:evenodd;stroke-linejoin:round;stroke-miterlimit:1.5;">
    <g transform="matrix(1,0,0,1,-3053.69,-2072.73)">
        <g transform="matrix(3.76031,0,0,3.77707,401.509,1788.96)">
            <g id="Pictogram">
                <g transform="matrix(0.248863,0,0,0.247759,-45.9779,-429.782)">
                    <g id="Ring">
                        <circle cx="3561.1" cy="2580.14" r="506.907" style="fill:white;"/>
                    </g>
                </g>
                <g transform="matrix(0.787191,0,0,0.7837,412.794,-418.211)">
                    <path d="M669.685,891.732C668.701,887.697 658.86,884.64 653.15,882.874C639.281,878.586 618.882,879.106 603.543,881.102C562.527,886.441 521.654,910.285 473.622,909.449C438.954,908.846 420.472,894.094 420.472,894.094C434.049,916.355 456.097,936.36 490.226,953.15L553.937,962.011L609.449,947.244L659.055,907.087C659.055,907.087 670.669,895.768 669.685,891.732Z" style="fill:rgb(87,102,127);"/>
                </g>
                <g transform="matrix(0.611351,0,0,0.60864,617.48,-1126.32)">
                    <circle cx="207.035" cy="2059.97" r="13.094" style="stroke:black;stroke-width:1px;"/>
                </g>
                <g transform="matrix(0.739526,0,0,0.736246,438.677,-380.204)">
                    <path d="M545.365,618.65L543.01,618.635C506.159,618.635 470.267,629.801 440.01,650.525C437.569,652.214 435.933,654.834 435.486,657.768C435.039,660.702 435.821,663.69 437.648,666.029C437.637,666.049 437.643,666.055 437.648,666.062C441.185,670.589 447.644,671.561 452.357,668.276C458.525,663.936 465.152,659.856 472.627,656.494C488.357,649.417 507.773,640.701 543.01,640.257L545.086,640.27C632.802,641.381 703.674,712.939 703.674,800.92C703.674,888.901 632.802,960.459 545.086,961.57L543.01,961.583C454.338,961.583 382.347,889.592 382.347,800.92C382.347,776.083 388.105,751.632 399.11,729.468C401.641,724.407 399.792,718.251 394.891,715.421C394.899,715.408 394.899,715.408 394.899,715.407C392.309,713.912 389.213,713.562 386.354,714.442C383.496,715.321 381.132,717.351 379.831,720.044C377.88,723.949 375.832,728.187 374.564,731.252C365.457,753.271 360.725,776.937 360.725,800.92C360.725,901.526 442.405,983.205 543.01,983.205L545.365,983.19C644.885,981.929 725.295,900.741 725.295,800.92C725.295,701.099 644.885,619.91 545.365,618.65Z" style="stroke:black;stroke-width:0.36px;stroke-miterlimit:2;"/>
                </g>
                <g transform="matrix(0.265935,0,0,0.264756,648.601,-472.248)">
                    <path d="M443.07,2602.12L986.222,2457.73L986.222,2640.74L528.181,2759.67L443.07,2602.12Z" style="fill:white;"/>
                </g>
                <g transform="matrix(1.43736,0,0,1.43098,900.543,190.039)">
                    <path d="M0,21.71L-74.991,40.428L-85.266,21.247L0,-0.097L0,21.71ZM-7.765,-11.443L-10.564,-16.693C-16.346,-27.703 -26.814,-33.658 -40.104,-33.658C-44.15,-33.658 -48.456,-33.106 -52.971,-31.978C-68.312,-28.144 -78.384,-19.568 -81.854,-8.099L-70.312,1.704L-70.312,1.379C-70.392,-11.606 -59.227,-17.126 -49.846,-19.471C-46.406,-20.33 -43.129,-20.766 -40.104,-20.766C-31.585,-20.766 -25.486,-17.379 -21.978,-10.699L-21.959,-10.663L-21.94,-10.626L-20.654,-8.216L-104.439,12.757L-81.612,55.368L12.892,31.78L12.892,-16.614L-7.765,-11.443Z" style="fill-rule:nonzero;"/>
                </g>
            </g>
            <g id="Hat-Labs" serif:id="Hat Labs" transform="matrix(0.787191,0,0,0.7837,404.922,-405.671)">
                <g transform="matrix(3.42468,0,0,3.42468,-4184.72,-2988)">
                    <g transform="matrix(50,0,0,50,1442.32,1139.13)">
                        <path d="M0.1,-0L0.1,-0.698L0.231,-0.698L0.231,-0.108L0.54,-0.108L0.54,-0L0.1,-0Z" style="fill-rule:nonzero;"/>
                    </g>
                    <g transform="matrix(50,0,0,50,1468.82,1139.13)">
                        <path d="M0.49,-0C0.459,-0 0.435,-0.008 0.418,-0.024C0.401,-0.039 0.39,-0.061 0.387,-0.089L0.382,-0.089C0.373,-0.057 0.354,-0.032 0.327,-0.015C0.3,0.003 0.266,0.012 0.226,0.012C0.174,0.012 0.133,-0.002 0.102,-0.029C0.071,-0.056 0.056,-0.094 0.056,-0.143C0.056,-0.247 0.132,-0.299 0.285,-0.299L0.376,-0.299L0.376,-0.333C0.376,-0.366 0.368,-0.39 0.352,-0.407C0.336,-0.424 0.31,-0.432 0.274,-0.432C0.241,-0.432 0.215,-0.426 0.195,-0.413C0.175,-0.4 0.158,-0.384 0.144,-0.364L0.071,-0.426C0.087,-0.455 0.113,-0.479 0.149,-0.499C0.184,-0.518 0.23,-0.528 0.287,-0.528C0.355,-0.528 0.408,-0.512 0.447,-0.481C0.485,-0.449 0.504,-0.402 0.504,-0.339L0.504,-0.096L0.565,-0.096L0.565,-0L0.49,-0ZM0.269,-0.076C0.3,-0.076 0.325,-0.083 0.346,-0.098C0.366,-0.112 0.376,-0.131 0.376,-0.156L0.376,-0.225L0.288,-0.225C0.218,-0.225 0.183,-0.203 0.183,-0.159L0.183,-0.139C0.183,-0.118 0.191,-0.103 0.206,-0.092C0.221,-0.081 0.242,-0.076 0.269,-0.076Z" style="fill-rule:nonzero;"/>
                    </g>
                    <g transform="matrix(50,0,0,50,1497.32,1139.13)">
                        <path d="M0.069,-0.74L0.197,-0.74L0.197,-0.425L0.204,-0.425C0.218,-0.456 0.237,-0.481 0.262,-0.5C0.286,-0.519 0.318,-0.528 0.358,-0.528C0.387,-0.528 0.414,-0.523 0.439,-0.512C0.463,-0.501 0.484,-0.484 0.501,-0.462C0.518,-0.439 0.532,-0.411 0.541,-0.377C0.55,-0.343 0.555,-0.303 0.555,-0.258C0.555,-0.213 0.55,-0.173 0.541,-0.139C0.532,-0.105 0.518,-0.077 0.501,-0.055C0.484,-0.032 0.463,-0.016 0.439,-0.005C0.414,0.007 0.387,0.012 0.358,0.012C0.318,0.012 0.286,0.003 0.262,-0.016C0.237,-0.035 0.218,-0.06 0.204,-0.091L0.197,-0.091L0.197,-0L0.069,-0L0.069,-0.74ZM0.304,-0.09C0.341,-0.09 0.37,-0.101 0.391,-0.124C0.411,-0.147 0.421,-0.178 0.421,-0.217L0.421,-0.299C0.421,-0.338 0.411,-0.369 0.391,-0.392C0.37,-0.415 0.341,-0.426 0.304,-0.426C0.275,-0.426 0.25,-0.419 0.229,-0.405C0.208,-0.39 0.197,-0.368 0.197,-0.339L0.197,-0.177C0.197,-0.148 0.208,-0.126 0.229,-0.112C0.25,-0.097 0.275,-0.09 0.304,-0.09Z" style="fill-rule:nonzero;"/>
                    </g>
                    <g transform="matrix(50,0,0,50,1524.32,1139.13)">
                        <path d="M0.298,0.012C0.241,0.012 0.192,0.003 0.151,-0.015C0.11,-0.032 0.077,-0.056 0.054,-0.086L0.129,-0.154C0.15,-0.131 0.175,-0.113 0.203,-0.1C0.23,-0.087 0.262,-0.081 0.299,-0.081C0.331,-0.081 0.357,-0.086 0.376,-0.097C0.395,-0.108 0.405,-0.124 0.405,-0.146C0.405,-0.165 0.399,-0.177 0.386,-0.184C0.373,-0.191 0.355,-0.196 0.334,-0.199L0.251,-0.212C0.23,-0.215 0.209,-0.22 0.189,-0.227C0.168,-0.233 0.15,-0.242 0.135,-0.253C0.119,-0.264 0.106,-0.279 0.097,-0.297C0.088,-0.314 0.083,-0.336 0.083,-0.361C0.083,-0.415 0.103,-0.456 0.144,-0.485C0.184,-0.514 0.239,-0.528 0.31,-0.528C0.36,-0.528 0.403,-0.521 0.438,-0.507C0.472,-0.493 0.501,-0.473 0.524,-0.448L0.457,-0.374C0.442,-0.39 0.423,-0.404 0.399,-0.417C0.374,-0.429 0.343,-0.435 0.306,-0.435C0.241,-0.435 0.208,-0.415 0.208,-0.374C0.208,-0.355 0.215,-0.343 0.228,-0.336C0.241,-0.329 0.259,-0.323 0.28,-0.32L0.362,-0.307C0.384,-0.304 0.405,-0.299 0.426,-0.293C0.446,-0.286 0.464,-0.277 0.48,-0.266C0.495,-0.255 0.508,-0.24 0.517,-0.223C0.526,-0.206 0.531,-0.184 0.531,-0.159C0.531,-0.106 0.511,-0.064 0.47,-0.034C0.429,-0.003 0.371,0.012 0.298,0.012Z" style="fill-rule:nonzero;"/>
                    </g>
                </g>
                <g transform="matrix(3.42468,0,0,3.42468,-4179.07,-3128.46)">
                    <g transform="matrix(50,0,0,50,1442.32,1139.13)">
                        <path d="M0.402,-0.3L0.198,-0.3L0.198,-0L0.067,-0L0.067,-0.698L0.198,-0.698L0.198,-0.408L0.402,-0.408L0.402,-0.698L0.533,-0.698L0.533,-0L0.402,-0L0.402,-0.3Z" style="fill-rule:nonzero;"/>
                    </g>
                    <g transform="matrix(50,0,0,50,1469.32,1139.13)">
                        <path d="M0.49,-0C0.459,-0 0.435,-0.008 0.418,-0.024C0.401,-0.039 0.39,-0.061 0.387,-0.089L0.382,-0.089C0.373,-0.057 0.354,-0.032 0.327,-0.015C0.3,0.003 0.266,0.012 0.226,0.012C0.174,0.012 0.133,-0.002 0.102,-0.029C0.071,-0.056 0.056,-0.094 0.056,-0.143C0.056,-0.247 0.132,-0.299 0.285,-0.299L0.376,-0.299L0.376,-0.333C0.376,-0.366 0.368,-0.39 0.352,-0.407C0.336,-0.424 0.31,-0.432 0.274,-0.432C0.241,-0.432 0.215,-0.426 0.195,-0.413C0.175,-0.4 0.158,-0.384 0.144,-0.364L0.071,-0.426C0.087,-0.455 0.113,-0.479 0.149,-0.499C0.184,-0.518 0.23,-0.528 0.287,-0.528C0.355,-0.528 0.408,-0.512 0.447,-0.481C0.485,-0.449 0.504,-0.402 0.504,-0.339L0.504,-0.096L0.565,-0.096L0.565,-0L0.49,-0ZM0.269,-0.076C0.3,-0.076 0.325,-0.083 0.346,-0.098C0.366,-0.112 0.376,-0.131 0.376,-0.156L0.376,-0.225L0.288,-0.225C0.218,-0.225 0.183,-0.203 0.183,-0.159L0.183,-0.139C0.183,-0.118 0.191,-0.103 0.206,-0.092C0.221,-0.081 0.242,-0.076 0.269,-0.076Z" style="fill-rule:nonzero;"/>
                    </g>
                    <g transform="matrix(50,0,0,50,1492.74,1139.13)">
                        <path d="M0.335,-0C0.286,-0 0.249,-0.013 0.226,-0.039C0.203,-0.065 0.191,-0.099 0.191,-0.14L0.191,-0.415L0.104,-0.415L0.104,-0.516L0.143,-0.516C0.164,-0.516 0.178,-0.52 0.187,-0.529C0.196,-0.537 0.2,-0.552 0.2,-0.573L0.2,-0.698L0.319,-0.698L0.319,-0.516L0.454,-0.516L0.454,-0.415L0.319,-0.415L0.319,-0.101L0.529,-0.101L0.529,-0L0.335,-0Z" style="fill-rule:nonzero;"/>
                    </g>
                </g>
            </g>
        </g>
    </g>
</svg>
